<?xml version="1.0" standalone="no"?>
<!DOCTYPE svg PUBLIC "-//W3C//DTD SVG 1.1//EN" "http://www.w3.org/Graphics/SVG/1.1/DTD/svg11.dtd" >
<svg xmlns="http://www.w3.org/2000/svg">
<metadata>Generated by IcoMoon</metadata>
<defs>
<font id="icomoon" horiz-adv-x="1024">
<font-face units-per-em="1024" ascent="960" descent="-64" />
<missing-glyph horiz-adv-x="1024" />
<glyph unicode="&#x20;" d="" horiz-adv-x="512" />
<glyph unicode="&#xe600;" d="M319.756 46.499c72.197 0 138.673 24.348 192.245 64.857 53.588-40.528 120.046-64.857 192.243-64.857 176.329 0 319.758 143.425 319.758 319.738 0 176.329-143.427 319.756-319.758 319.756-72.197 0-138.671-24.348-192.243-64.855-53.588 40.526-120.047 64.855-192.245 64.855-176.329-0.002-319.756-143.427-319.756-319.756 0-176.294 143.427-319.738 319.756-319.738zM511.999 495.437c24.909-36.935 39.468-81.404 39.468-129.201s-14.559-92.266-39.468-129.201c-24.911 36.935-39.47 81.404-39.47 129.201s14.577 92.266 39.47 129.201zM704.261 597.967c127.776 0 231.731-103.955 231.731-231.731 0-127.774-103.955-231.713-231.731-231.713-47.92 0-92.495 14.629-129.483 39.645 40.438 53.555 64.732 119.941 64.732 192.068s-24.294 138.533-64.732 192.085c36.988 25.018 81.563 39.646 129.483 39.646zM319.756 597.967c47.92 0 92.495-14.629 129.483-39.646-40.438-53.553-64.732-119.959-64.732-192.085s24.294-138.513 64.732-192.068c-36.988-25.016-81.563-39.645-129.483-39.645-127.774 0-231.731 103.939-231.731 231.713-0.002 127.776 103.955 231.731 231.731 231.731zM505.821 812.376h-0.352c0 0-48.66 53.29-91.123 14.365s-5.317-128.603 91.123-167.527l0.352-0.335c96.422 38.925 133.585 128.938 91.121 167.861-42.461 38.927-91.121-14.364-91.121-14.364z" />
<glyph unicode="&#xe601;" d="M738.362-68.267c-15.176 0-30.382 5.74-41.952 17.34l-452.694 452.754c-23.17 23.17-23.17 60.674 0 83.843l452.694 452.694c23.17 23.17 60.704 23.17 83.873 0s23.17-60.704 0-83.843l-410.802-410.772 410.802-410.772c23.17-23.17 23.17-60.734 0-83.903-11.57-11.57-26.746-17.34-41.922-17.34z" />
<glyph unicode="&#xe602;" d="M661.333 896h-341.333c-58.88 0-106.667-47.787-106.667-106.667v-725.333c0-58.88 47.787-106.667 106.667-106.667h341.333c58.88 0 106.667 47.787 106.667 106.667v725.333c0 58.88-47.787 106.667-106.667 106.667zM490.667-0c-35.413 0-64 28.587-64 64s28.587 64 64 64 64-28.587 64-64-28.587-64-64-64zM682.667 170.667h-384v597.333h384v-597.333z" />
<glyph unicode="&#xe603;" d="M512 955.733c-281.6 0-512-230.4-512-512s230.4-512 512-512 512 230.4 512 512-230.4 512-512 512zM512 34.133c-225.28 0-409.6 184.32-409.6 409.6s184.32 409.6 409.6 409.6 409.6-184.32 409.6-409.6-184.32-409.6-409.6-409.6zM307.2 392.533h409.6v102.4h-409.6v-102.4z" />
<glyph unicode="&#xe604;" d="M563.2 648.533h-102.4v-153.6h-153.6v-102.4h153.6v-153.6h102.4v153.6h153.6v102.4h-153.6v153.6zM512 955.733c-281.6 0-512-230.4-512-512s230.4-512 512-512 512 230.4 512 512-230.4 512-512 512zM512 34.133c-225.28 0-409.6 184.32-409.6 409.6s184.32 409.6 409.6 409.6 409.6-184.32 409.6-409.6-184.32-409.6-409.6-409.6z" />
<glyph unicode="&#xe605;" d="M512 955.733c-282.771 0-512-229.229-512-512s229.229-512 512-512 512 229.229 512 512-229.229 512-512 512zM821.609 580.273c0.241-6.044 0.367-12.099 0.367-18.186 0-218.712-166.427-444.935-444.935-444.935-85.136 0-168.030 24.293-239.716 70.271-1.498 0.953-2.116 2.807-1.519 4.473 0.597 1.655 2.284 2.682 4.012 2.483 12.026-1.435 24.325-2.148 36.529-2.148 66.238 0 128.945 20.48 181.984 59.334-63.577 5.364-118.218 48.387-137.871 109.764-0.409 1.278-0.115 2.671 0.765 3.677 0.89 1.006 2.252 1.446 3.551 1.205 17.62-3.342 35.534-3.562 52.798-0.754-65.567 20.375-111.65 81.794-111.65 151.72l0.021 2.032c0.031 1.33 0.754 2.546 1.907 3.206 1.142 0.67 2.567 0.681 3.719 0.031 17.096-9.491 36.015-15.588 55.427-17.924-37.681 30.034-59.806 75.561-59.806 124.263 0 28.096 7.438 55.71 21.517 79.856 0.629 1.079 1.739 1.77 2.975 1.865 1.247 0.126 2.451-0.419 3.237-1.383 77.122-94.596 190.564-152.841 311.872-160.331-2.022 10.182-3.048 20.679-3.048 31.27 0 87.587 71.256 158.833 158.833 158.833 43.055 0 84.665-17.693 114.489-48.618 33.617 6.851 65.641 19.212 95.224 36.749 1.351 0.807 3.048 0.681 4.295-0.293 1.215-0.985 1.718-2.619 1.236-4.127-10.025-31.354-29.573-58.706-55.835-78.453 24.733 4.306 48.733 11.576 71.56 21.706 1.529 0.702 3.342 0.262 4.442-1.027 1.089-1.299 1.184-3.153 0.241-4.557-20.794-31.123-46.565-58.035-76.619-80.003z" />
<glyph unicode="&#xe606;" d="M767.998 571.733c0 212.059-171.933 384-383.996 384-212.059 0-384-171.942-384-384s171.942-383.992 384-383.992c212.063 0 383.996 171.933 383.996 383.992zM384.002 283.744c-158.813 0-287.998 129.174-287.998 287.987s129.185 287.998 287.998 287.998c158.809 0 288.004-129.185 288.004-287.998s-129.195-287.987-288.004-287.987zM995.866 95.598l-234.921 234.94c-35.003-54.438-81.327-100.738-135.765-135.744l234.94-234.94c37.506-37.498 98.318-37.498 135.744 0 37.508 37.437 37.508 98.248 0.002 135.744z" />
<glyph unicode="&#xe607;" d="M511.98 955.733c-282.304 0-511.98-229.683-511.98-512s229.676-512 511.98-512c282.319 0 512.020 229.683 512.020 512s-229.701 512-512.020 512zM511.98-1.118c-245.284 0-444.831 199.562-444.831 444.851 0 245.292 199.544 444.849 444.831 444.849 245.304 0 444.867-199.56 444.867-444.849 0.003-245.289-199.562-444.851-444.867-444.851zM679.611 611.339c-13.115 13.115-34.36 13.115-47.475 0l-120.136-120.128-120.136 120.128c-13.115 13.115-34.365 13.115-47.48 0-13.115-13.107-13.115-34.371 0-47.478l120.12-120.128-120.136-120.131c-13.115-13.105-13.115-34.36 0-47.48 6.556-6.559 15.15-9.836 23.739-9.836s17.18 3.277 23.734 9.836l120.159 120.141 120.136-120.146c6.559-6.559 15.145-9.836 23.734-9.836 8.586 0 17.18 3.274 23.736 9.836 13.115 13.105 13.115 34.371 0 47.475l-120.131 120.141 120.136 120.128c13.115 13.107 13.115 34.363 0 47.478z" />
<glyph unicode="&#xe608;" d="M498.17 955.733c177.127 0 351.511-81.575 351.511-276.696 0-179.936-206.191-249.134-250.473-314.153-33.244-48.364-22.141-116.321-113.48-116.321-59.5 0-88.564 48.396-88.564 92.678 0 164.783 242.113 202.076 242.113 337.763 0 74.685-49.703 118.966-132.78 118.966-177.127 0-107.961-182.613-242.113-182.613-48.429 0-90 29.064-90 84.384-0.033 135.719 154.921 255.992 323.786 255.992zM491.28 158.726c62.177 0 113.48-51.14 113.48-113.513s-51.205-113.513-113.48-113.513c-62.275 0-113.513 51.074-113.513 113.513 0 62.341 51.238 113.513 113.513 113.513z" />
<glyph unicode="&#xe609;" d="M685.962 436.896c43.615 5.914 61.145 33.353 65.751 75.133 0.671 5.99 1.652 15.801 0.128 21.631-2.441 9.353-9.38 26.108-27.969 55.038-7.822 11.070-17.862 20.224-21.571 31.483-14.005 42.488-26.252 85.537-39.915 128.11 4.732 9.102 6.053 19.745 3.080 29.949-0.352 3.597-1.461 7.332-3.677 11.138-11.787 20.23-29.415 30.542-49.1 38.476-14.975 8.76-30.218 15.194-48.377 22.972-5.543 2.377-7.642 9.299-7.642 15.322v62.060c0 6.028-5.191 11.986-8.697 13.307s-10.743-1.812-13.845-6.976c-11.863-19.756-24.078-39.664-36.702-60.671-3.101-5.159-7.696-4.865-10.089 0.665-10.435 24.067-20.713 47.652-33.386 76.889-2.398 5.525-6.742 5.739-9.95 0.644-8.473-13.423-15.109-21.018-14.618-28.128 3.267-47.023-22.285-71.474-59.249-95.079-20.224-12.912-36.893-40.678-42.968-64.817-20.848-82.825-36.301-166.992-53.83-250.749 0 0-32.699-151.217 75.107-237.88 70.659-56.796 92.31-175.912 97.409-212.361 0.837-5.97 2.409-15.615 3.404-21.562 5.772-34.437 4.082-70.333 5.096-103.808 0.197-6.023 4.246-7.802 8.754-3.805 98.525 87.162 164.413 260.495 64.759 403.91-35.263 50.754-69.049 103.159-97.011 158.124-15.85 31.17-21.919 67.327-30.243 99.513-1.507 5.835 0.218 6.731 3.99 2.025 50.339-62.707 97.059-128.137 152.261-185.396 91.309-94.699 144.162-195.256 84.049-327.544-2.494-5.491-0.15-7.995 5.191-5.181 55.016 28.894 101.25 99.834 108.104 162.718 7.909 72.549-27.709 128.609-72.347 185.321-3.733 4.712-1.89 8.72 4.099 9.53zM662.685 470.841c-1.715-5.777-6.585-7.546-11.254-3.734-23.032 18.784-46.695 40.112-73.393 56.537-30.481 18.748-64.954 30.919-97.259 46.821-88.26 43.437-104.059 166.16-36.419 234.866 4.237 4.301 11.528 4.156 15.944 0.065 15.139-14.025 30.201-27.983 45.831-42.468 4.418-4.093 3.57-9.468-1.902-12.016-0.878-0.411-1.774-0.826-2.669-1.241-5.467-2.542-8.154-9.166-5.685-14.672 21.598-47.865 57.319-76.525 101.783-102.029 32.69-18.753 62.723-53.493 77.516-88.11 8.515-19.954-5.117-49.333-12.494-74.018z" />
<glyph unicode="&#xe60a;" d="M339.499 845.685c41.323 0 79.235-11.115 113.845-33.51 17.828 4.402 39.122 6.658 63.663 6.658 101.575 0 188.073-36.866 259.549-110.489 71.476-73.677 107.187-162.982 107.187-267.968 0-25.641-2.806-52.438-8.364-80.39 14.526-32.409 21.79-65.314 21.79-98.713 0-60.362-20.909-112.029-62.838-154.893-41.873-42.974-91.78-64.543-149.941-64.543-34.61 0-68.065 8.914-100.419 26.852-28.998-4.457-51.338-6.713-66.964-6.713-101.63 0-188.458 36.866-260.429 110.544s-108.012 162.982-108.012 267.858c0 24.596 2.806 49.632 8.364 75.383-20.029 33.51-30.098 70.871-30.098 112.194 0 60.307 20.689 111.644 61.957 154.013 41.268 42.479 91.56 63.718 150.711 63.718zM512 266.28c-22.34 0-40.113 3.356-53.649 10.069-14.471 7.813-24.486 15.627-30.098 23.385-13.371 24.596-20.689 37.471-21.79 38.517-4.457 13.371-11.115 24.596-20.029 33.51-11.17 7.703-22.34 11.72-33.565 11.72-15.627 0-28.448-5.007-38.517-15.077-10.069-10.014-15.077-21.79-15.077-35.16 0-21.239 7.923-44.074 23.55-68.67 14.471-22.285 34.61-40.773 60.307-55.189 35.656-19.038 79.785-28.558 132.278-28.558 43.469 0 81.986 6.713 115.551 20.084 33.51 15.627 58.051 35.16 73.677 58.601 16.727 25.696 25.091 53.649 25.091 83.747 0 24.486-4.402 46.881-13.316 66.964-8.969 16.727-22.89 31.804-41.928 45.12-20.084 12.38-41.268 22.395-63.608 30.153-37.912 11.225-64.818 18.488-80.39 21.79-7.868 1.156-17.608 3.026-29.328 5.888-11.72 2.751-19.258 4.677-22.56 5.833-13.371 4.402-22.89 8.364-28.503 11.665-8.969 4.457-16.177 10.62-21.79 18.488-5.667 5.502-8.364 12.821-8.364 21.79 0 13.371 7.813 25.036 23.44 35.16 14.581 11.17 35.711 16.782 63.608 16.782 27.952 0 48.641-5.062 62.012-15.022 14.471-12.38 25.091-26.302 31.749-41.928 8.969-14.526 16.232-24.541 21.79-30.098 8.914-6.768 19.534-10.124 31.804-10.124 14.526 0 27.402 5.612 38.462 16.837 10.124 9.959 15.132 22.23 15.132 36.811 0 11.115-3.962 25.696-11.775 43.524-8.914 13.371-20.689 26.742-35.16 40.113-15.627 12.325-36.261 22.945-62.012 31.859-26.687 7.868-55.244 11.72-85.398 11.72-40.168 0-75.933-6.053-107.187-18.433-31.144-11.005-55.189-27.787-71.917-50.127-16.782-22.34-25.146-47.981-25.146-77.034 0-28.998 7.868-54.144 23.44-75.383 19.038-22.285 40.168-37.857 63.608-46.826 26.852-12.325 59.206-22.395 97.173-30.153 6.658-1.156 14.857-3.081 24.266-5.833 9.464-2.861 17.828-5.062 25.146-6.768 7.208-1.541 13.096-3.026 17.553-4.127 15.627-5.667 28.448-13.371 38.462-23.495 10.069-7.758 15.077-19.479 15.077-35.16 0-19.038-8.914-34.61-26.742-46.936-20.029-13.371-45.175-20.029-75.328-20.029zM339.499 955.733c-88.534 0-167.989-33.565-229.671-97.118-60.802-62.397-93.046-142.238-93.046-230.661 0-45.78 8.584-89.084 25.641-129.197-2.586-19.644-3.852-39.232-3.852-58.436 0-134.149 46.936-250.195 139.321-344.837 93.156-95.302 207.331-143.613 339.169-143.613 13.976 0 30.098 1.1 49.302 3.301 37.967-15.572 77.529-23.44 118.082-23.44 87.378 0 166.448 33.785 228.736 97.778 61.462 62.893 94.036 143.063 94.036 231.707 0 37.251-6.108 74.228-18.268 110.268 3.246 23.495 4.897 46.55 4.897 68.835 0 134.094-46.55 250.030-138.276 344.616-92.716 95.467-206.616 143.888-338.509 143.888-15.352 0-30.043-0.715-44.074-2.091-41.598 19.258-86.278 28.998-133.489 28.998z" />
<glyph unicode="&#xe60b;" d="M522.982 283.404c-30.679 0-55.577 9.893-55.577 22.231 0 12.294 24.899 22.231 55.577 22.231s55.577-9.937 55.577-22.231c0-12.316-24.899-22.231-55.577-22.231zM371.99 491.974c-27.589 0-50.020-22.431-50.020-50.020 0-27.566 22.431-50.020 50.020-50.020s50.020 22.453 50.020 50.020c0 27.589-22.453 50.020-50.020 50.020zM673.974 391.913c27.566 0 50.020 22.453 50.020 50.020 0 27.611-22.453 50.020-50.020 50.020-27.589 0-50.020-22.431-50.020-50.020 0-27.566 22.431-50.020 50.020-50.020zM1023.177 350.319c-3.068-83.321-186.184-308.454 0-391.82l-166.732 55.577c0-33.346 11.115-44.462 11.115-44.462-114.489-16.562-261.658 4.468-372.39 27.166-45.062 2.957-88.479 13.072-129.162 29.078 14.228-34.591 43.061-70.072 43.061-70.072-91.702 13.894-158.395 61.135-158.395 61.135l-11.115-55.577c-272.329 91.702-265.77 566.466-205.636 708.61 30.567 72.25 88.924 247.319 316.79 183.405 0 0 231.090 210.46 505.753-58.356 69.605-68.227 177.825-138.988 166.71-444.685zM523.649 84.726c148.88 0 274.996 94.837 320.325 226.4 5.647-2.557 11.716-4.090 18.14-4.090 27.677 0 49.864 25.477 49.864 56.956 0 31.057-21.72 56.244-48.908 56.889-7.025-11.516-14.961-22.631-23.787-33.235 9.293 31.768 14.361 64.381 14.361 96.793 0 8.737-0.645 17.118-1.378 25.477-72.384-17.562-174.090 3.846-268.972 63.692-48.997 30.901-89.479 67.893-119.424 106.486-53.421-29.767-104.041-91.658-265.17-155.839-1.756-12.872-2.957-26.010-2.957-39.816 0-32.413 5.069-65.070 14.361-96.793-9.27 11.115-17.562 22.72-24.832 34.791 0-0.511-0.044-1.134-0.044-1.645-0.534 0.044-1.023 0.2-1.534 0.2-27.677 0-49.864-25.477-49.864-56.978 0-31.479 22.186-56.956 49.864-56.956 6.892 0 13.45 1.601 19.43 4.468 45.284-131.807 171.556-226.8 320.525-226.8z" />
<glyph unicode="&#xe60c;" d="M949.158-28.344c-61.243 72.463-170.981 127.714-303.609 150.267-12.971 77.67-36.131 113.957-36.737 114.967 10.099 4.735 22.284 6.351 36.198 3.276 16.966-3.815 28.545-12.814 35.57-24.214 2.042-3.321 7.249-2.199 7.854 1.661 0.875 5.655 0.606 11.827-1.324 18.671-4.847 17.033-18.11 31.194-35.39 34.919-11.288 2.401-22.509 0.539-31.979-4.488 8.775 7.585 19.704 13.779 33.011 18.11 28.725 9.201 53.77 4.713 73.249-7.72 3.299-2.087 7.338 0.943 6.284 4.713-3.254 11.692-9.695 23.16-21.633 33.685-20.107 17.684-48.092 25.359-73.518 16.943-8.191-2.715-15.642-6.755-22.127-11.759 0.471 0.606 0.987 1.234 1.459 1.818 18.739 22.015 41.247 31.53 63.442 32.069 4.825 0.112 6.979 6.373 3.276 9.493-7.877 6.553-17.572 11.714-30.161 14.407-28.321 6.037-58.123-2.446-76.121-25.112-6.463-8.101-10.951-17.235-13.555-26.66-7.63 6.171-16.562 10.951-26.571 13.779-27.827 7.899-56.979-2.603-76.458-23.99-8.416-9.223-13.285-18.851-15.866-28.478-1.346-4.96 4.354-8.977 8.64-6.149 18.245 12.208 41.831 17.415 69.591 10.547 0.763-0.224 1.504-0.426 2.267-0.606-8.191 0.314-16.584-0.763-24.865-3.344-25.561-7.967-43.828-30.498-49.865-56.597-3.456-15.036-2.199-27.805 1.706-38.936 1.414-4.039 6.979-4.129 8.64-0.18 8.775 21.050 26.346 38.846 54.622 47.935 13.308 4.286 25.808 5.61 37.342 4.578-10.66-1.414-20.848-6.463-28.59-15.013-11.894-13.106-14.385-32.293-8.393-48.99 2.401-6.732 5.857-11.939 9.897-16.046 2.693-2.76 7.54-0.651 7.249 3.187-1.010 13.398 3.187 27.311 14.744 40.327 8.909 9.986 19.053 16.405 29.331 17.841v0c-0.022 0 16.27-40.013 18.537-97.755-27.132 2.783-55.004 4.331-83.459 4.331-69.68 0-135.95-8.685-195.913-24.416 12.433 270.935 179.172 450.421 179.374 451.319v0.022c20.534-13.577 37.881-34.38 49.102-63.576 14.609-37.926 12.096-72.284-1.122-100.65-3.793-8.124 5.094-16.719 13.263-12.926 12.208 5.655 23.99 14.205 34.807 26.885 26.773 31.44 37.163 75.47 21.97 113.845-9.919 25.045-28.074 44.411-50.089 56.328 26.032-7.226 52.266-20.399 77.827-40.664 54.263-43.11 77.984-96.52 79.846-149.594 0.359-9.964 12.59-14.43 18.985-6.755 17.661 21.095 30.969 47.98 35.749 83.684 8.303 61.961-13.016 126.165-62.275 164.652-15.933 12.477-33.37 21.701-51.548 27.805 1.818-0.18 3.613-0.382 5.453-0.561 66.247-7.742 113.508-38.487 143.311-80.161 6.957-9.717 22.733-5.565 23.855 6.306 2.311 23.16-0.471 48.159-11.243 75.268-24.91 62.746-79.936 109.604-147.238 115.304-24.147 2.042-47.643-1.010-69.366-8.214 2.132 22.8-0.247 46.297-7.675 69.321-20.713 64.272-78.769 107.292-145.51 117.458-29.6 4.488-55.161 1.257-77.647-6.643-10.637-3.725-11.131-19.187-0.696-23.406 48.069-19.389 89.384-58.617 112.184-122.171 0.628-1.728 1.212-3.456 1.773-5.162-10.054 16.315-22.98 31.238-38.734 43.918-48.63 39.295-115.999 45.556-174.459 23.496-34.739-13.106-58.258-32.944-74.932-55.744-5.386-7.361 0.943-17.302 9.852-15.44 52.827 11.019 111.13 0.359 166.246-43.491 25.538-20.287 44.322-42.841 57.248-66.606-16.562 18.806-39.564 32.091-66.202 36.063-40.821 6.126-81.372-13.914-105.946-47.149-9.852-13.285-15.462-26.593-18.245-39.676-1.885-8.887 8.595-15.664 15.776-10.076 24.641 19.165 57.427 29.286 97.575 23.631 32.966-4.645 58.258-18.178 76.39-36.826-3.232-2.76-204.396-152.871-336.194-612.47-8.034-7.63-15.507-15.574-22.374-23.698-13.51-16.001-2.087-40.641 18.806-40.641h836.3c20.579-0.112 32.338 24.169 19.030 39.923z" />
<glyph unicode="&#xe60d;" d="M516.612 557.449l90.739-90.697-22.277-22.298-90.739 90.697 22.277 22.298zM686.627 657.266c-19.39 19.411-50.766 19.411-70.156 0l-75.385-75.365 90.739-90.718 75.385 75.385c19.411 19.411 19.411 50.808 0 70.156l-20.582 20.541zM14.558 55.395c-19.411-19.369-19.411-50.829 0-70.156l20.499-20.499c19.39-19.411 50.808-19.411 70.156 0l452.961 452.961-90.718 90.76-452.899-453.066zM893.33 665.445l-16.796-44.198-44.177-16.776 44.177-16.817 16.796-44.177 16.796 44.177 44.177 16.817-44.177 16.776-16.796 44.198zM752.14 857.046l-30.434 80.217-30.393-80.217-80.238-30.434 80.238-30.434 30.393-80.238 30.434 80.238 80.217 30.434-80.217 30.434zM976.602 812.325l-17.926 47.419-17.926-47.419-47.398-17.926 47.398-17.989 17.926-47.377 17.926 47.377 47.419 17.989-47.419 17.926z" />
<glyph unicode="&#xe60e;" d="M902.463 832.609h-780.923c-67.017 0-121.54-52.361-121.54-116.719v-544.314c0-64.358 54.523-116.719 121.54-116.719h780.923c67.017 0 121.537 52.361 121.537 116.719v544.314c0 64.358-54.521 116.719-121.537 116.719zM902.463 157.901h-780.923c-9.851 0-18.491 6.389-18.491 13.675v472.338l353.191-298.182c7.241-6.115 16.449-9.481 25.93-9.481l59.65-0.003c9.476 0 18.689 3.369 25.932 9.484l353.207 298.193v-472.354c-0.005-7.281-8.648-13.67-18.496-13.67zM512.001 438.565l-343.522 291h687.044l-343.522-291z" />
<glyph unicode="&#xe60f;" d="M663.803 272.998c-12.821-12.987-27.253-23.805-42.821-32.25-8.176-10.777-16.765-21.225-26.407-30.784-23.145-22.979-49.407-40.632-77.92-52.999 5.802-0.929 11.645-1.879 17.611-2.312 32.085-2.416 63.467 2.705 92.62 14.205 29.607 11.603 56.86 29.69 80.211 52.896 23.599 23.434 43.192 52.029 57.149 84.155 14.060 32.291 22.381 68.113 23.537 105.71 1.177 37.535-4.955 73.212-16.889 105.359-11.81 31.899-29.318 60.205-51.1 83.515-21.493 23.041-47.012 41.107-75.277 52.979-27.831 11.665-58.12 17.322-89.853 15.712-8.011-0.434-15.918-1.28-23.64-2.56 28.637-12.739 54.486-31.073 76.639-54.878 7.329-7.825 13.936-16.207 20.233-24.92 16.971-8.878 32.456-20.708 45.691-35.285 15.815-17.405 28.471-38.32 36.978-61.898 8.589-23.64 12.945-49.737 12.016-77.176-0.929-27.563-7.020-53.763-17.178-77.445-10.241-23.723-24.425-44.699-41.603-62.022zM239.457 137.495c28.306 0 56.303 5.368 83.061 15.918 31.63 12.47 60.535 31.444 85.786 56.571 25.478 25.354 45.918 55.415 60.639 89.254 15.32 35.264 23.681 72.861 24.92 111.8 1.177 38.815-4.873 76.35-17.942 111.573-12.491 33.736-30.846 63.694-54.527 89.027-23.31 25.044-50.522 44.204-80.893 56.963-30.763 12.945-63.384 18.623-97.059 16.971-32.745-1.652-64.479-10.282-94.313-25.622-28.1-14.494-53.557-34.376-75.442-59.090-21.575-24.321-38.877-52.256-51.41-83.081-12.904-31.734-20.254-65.408-21.926-100.011-1.652-34.851 2.54-68.897 12.47-101.25 9.786-31.775 24.631-60.804 44.266-86.385 20.048-26.138 44.121-47.301 71.54-63.075 29.153-16.703 60.804-26.386 94.148-28.905 5.471-0.413 11.066-0.661 16.682-0.661zM124.209 294.077c-12.78 16.207-22.463 34.851-28.864 55.291-6.586 21.080-9.435 43.44-8.403 66.254 1.094 22.794 5.926 44.906 14.411 65.738 8.217 20.13 19.593 38.278 33.778 54.011 14.163 15.753 30.453 28.286 48.436 37.287 18.706 9.353 38.506 14.432 58.801 15.134 1.61 0.041 3.221 0.083 4.831 0.083 18.83 0 37.143-3.882 54.445-11.459 18.52-8.176 35.202-20.275 49.469-36.007 14.638-16.125 25.994-35.099 33.695-56.406 8.155-22.422 11.83-46.31 10.984-71.024-0.805-24.879-6.132-48.911-15.856-71.416-9.27-21.575-22.092-40.756-38.155-56.922-15.691-15.877-33.55-27.955-53.144-35.904-19.635-8.073-40.199-11.583-61.093-10.323-20.44 1.259-40.013 6.896-58.037 16.827-17.281 9.456-32.518 22.546-45.298 38.836zM429.817 669.801c-10.963-0.537-21.699-2.209-32.25-4.48 14.762-10.406 28.554-22.443 41.252-36.049 7.908-8.465 15.051-17.57 21.865-26.923 11.459-2.147 22.546-5.595 33.096-10.199 20.729-9.064 39.393-22.794 55.064-40.013 15.774-17.405 28.471-38.34 36.978-61.898 8.548-23.661 12.904-49.758 11.975-77.197-0.888-27.542-6.978-53.763-17.178-77.424-10.158-23.661-24.404-44.638-41.582-61.939-17.013-17.26-36.957-30.763-58.595-39.641-8.795-3.613-17.88-6.215-27.191-8.176-8.671-11.521-17.9-22.608-28.141-32.807-12.945-12.821-26.861-24.115-41.499-33.984 8.403-1.734 16.992-3.035 25.849-3.778 32.064-2.416 63.405 2.705 92.599 14.205 29.566 11.603 56.819 29.69 80.211 52.896 23.599 23.434 43.151 52.029 57.108 84.134 14.101 32.27 22.381 68.113 23.661 105.71 1.136 37.494-4.996 73.171-16.93 105.359-11.81 31.899-29.318 60.226-51.141 83.535-21.493 23.041-46.971 41.107-75.277 52.958-27.852 11.727-58.202 17.343-89.874 15.712zM1016.485 661.047c0.434 19.057-3.014 36.978-9.704 53.061-6.586 15.98-16.331 30.164-28.43 41.726-11.975 11.5-26.242 20.399-42.139 26.18-15.733 5.636-33.034 8.176-51.059 6.813l-127.987-9.477-37.473 71.911c-1.363 2.23-3.221 4.645-5.636 6.834-2.416 2.209-5.409 4.315-9.146 6.049-3.716 1.734-8.176 3.056-13.523 3.84-5.43 0.764-11.645 0.867-18.912 0.186l-9.022-0.847-206.031-19.924c-6.524-0.599-12.202-1.899-17.013-3.51-4.831-1.652-8.919-3.716-12.347-5.967s-6.194-4.728-8.465-7.268c-2.25-2.478-3.985-4.976-5.409-7.309l-37.019-72.097-19.428-1.425c-0.929 3.056-2.952 5.884-5.884 8.321-2.911 2.457-6.731 4.563-11.252 6.194-4.48 1.59-9.683 2.808-15.361 3.427-5.657 0.619-11.83 0.723-18.313 0.227-7.020-0.516-13.668-1.755-19.759-3.51-6.091-1.776-11.583-3.985-16.249-6.586-4.728-2.643-8.589-5.595-11.417-8.837-2.829-3.159-4.645-6.545-5.162-10.034-10.695-3.737-20.77-9.435-29.917-16.765-5.926-4.728-11.294-10.344-16.331-16.29 11.294 2.147 22.67 3.82 34.19 4.356 37.7 1.858 73.749-4.522 107.919-18.85 2.085-0.867 3.985-2.065 6.049-2.994l527.103 30.66c8.671 0.454 16.868-0.826 24.363-3.696 7.495-2.89 14.225-7.268 19.841-12.863 5.636-5.595 10.158-12.47 13.296-20.275 3.035-7.804 4.687-16.517 4.439-25.849l5.492-500.737c-0.289-9.394-2.271-18.231-5.843-26.118-3.551-7.908-8.548-14.886-14.68-20.543-6.091-5.636-13.317-10.034-21.101-12.883-7.866-2.787-16.373-3.923-25.312-3.2l-535.754 44.761c-5.409-2.54-10.736-5.203-16.29-7.35-29.71-11.665-60.721-17.632-92.145-17.632-6.215 0-12.429 0.268-18.664 0.702-18.747 1.404-37.019 4.893-54.651 10.426 7.66-10.468 16.786-19.366 27.109-25.973 11.211-7.226 23.743-11.768 37.225-13.152l651.188-65.263c18.664-1.858 36.689 0.351 53.309 5.967 16.765 5.616 31.981 14.803 44.968 26.778 13.028 11.996 23.743 26.84 31.403 43.688 7.536 16.889 11.975 35.842 12.47 56.158l-7.536 508.955z" />
<glyph unicode="&#xe610;" d="M485.156 609.375c9.125 2.769 15.367 8.568 14.024 13.025l-41.45 136.308c-1.343 4.44-9.814 5.783-18.906 3.015-45.185-13.746-69.285-56.85-56.063-100.282 13.172-43.416 57.21-65.795 102.395-52.066zM234.034 587.733c3.932-12.894 17.514-20.135 30.44-16.236l101.527 30.899c12.894 3.899 20.151 17.53 16.252 30.407l-15.875 52.164c-3.899 12.894-17.53 20.151-30.424 16.236l-101.527-30.882c-12.894-3.932-20.135-17.546-16.236-30.424l15.843-52.164zM250.794 652.807l81.31 24.739c4.538 1.376 9.371-1.18 10.747-5.751 1.376-4.538-1.18-9.338-5.734-10.715l-81.326-24.755c-4.505-1.376-9.338 1.18-10.715 5.751-1.393 4.522 1.18 9.355 5.718 10.731zM507.192 699.287c-3.653 11.943-16.252 18.677-28.228 15.040l13.188-43.252c11.943 3.653 18.66 16.285 15.040 28.212zM903.174 713.294c-44.497 125.119-153.396 217.897-284.298 242.144-8.192 1.524-16.318-3.080-19.25-10.862-2.949-7.798 0.115-16.58 7.291-20.856 14.221-8.487 29.342-30.637 38.501-56.44 9.207-25.804 11.452-52.525 5.8-68.072-2.883-7.766 0.262-16.465 7.356-20.708 14.188-8.503 29.342-30.637 38.533-56.44 7.733-21.724 10.485-44.038 7.798-59.831-5.538 2.572-12.009 3.096-18.284 0.934l-79.524-27.802c-7.045-2.441-12.074-7.848-14.63-14.237l-261.296-91.254v20.725c0 9.519-7.684 17.219-17.186 17.219-9.535 0-17.252-7.7-17.252-17.219v-246.109c-9.338-4.342-15.957-13.778-15.957-24.771s6.553-20.43 15.957-24.771v-46.184l-72.922-106.262c0.295 1.95-0.475 3.998-2.212 5.193-2.425 1.704-5.8 1.098-7.487-1.343l-24.575-35.339c-1.704-2.392-1.081-5.8 1.376-7.504 1.982-1.376 4.522-1.114 6.373 0.328l-71.234-103.771c-2.556-3.735-3.391-8.061-2.785-12.173-14.040-1.343-23.903-4.26-23.903-7.667 0-4.669 18.316-8.487 40.876-8.487 22.609 0 40.893 3.785 40.893 8.487 0 3.227-8.896 6.013-21.822 7.422l137.455 200.318v-149.988c0-1.999 0.393-3.883 1.016-5.685-14.532-1.311-24.706-4.276-24.706-7.766 0-4.686 18.333-8.503 40.893-8.503s40.893 3.785 40.893 8.503c0 3.473-10.174 6.455-24.755 7.766 0.639 1.786 1.049 3.703 1.049 5.685v149.988l137.439-200.318c-12.926-1.409-21.855-4.194-21.855-7.422 0-4.669 18.333-8.487 40.893-8.487 22.592 0 40.909 3.785 40.909 8.487 0 3.408-9.846 6.34-23.903 7.667 0.606 4.112-0.229 8.47-2.785 12.173l-70.907 103.329c1.786-1.049 4.063-1.065 5.849 0.18 2.408 1.704 3.047 5.079 1.343 7.504l-24.575 35.322c-1.704 2.441-5.046 3.080-7.487 1.343-1.655-1.114-2.392-3.031-2.228-4.882l-72.709 105.95v46.135c9.404 4.342 15.974 13.778 15.974 24.771s-6.537 20.446-15.974 24.771v188.915l272.699 95.219c5.947-3.44 13.303-4.456 20.25-2.015l79.524 27.802c6.586 2.326 11.517 7.176 14.139 13.074 11.812-10.698 23.444-29.359 30.997-50.624 9.207-25.82 11.403-52.557 5.783-68.072-2.851-7.798 0.279-16.498 7.356-20.725 14.221-8.47 29.342-30.637 38.533-56.424 9.207-25.787 11.419-52.508 5.8-68.089-1.343-3.752-1.393-7.848-0.082-11.599l0.18-0.41c2.015-5.8 7.012-10.092 13.090-11.239 1.032-0.197 2.113-0.328 3.113-0.328 5.013 0 9.846 2.212 13.139 6.062 86.11 101.412 112.028 242.128 67.515 367.262z" />
<glyph unicode="&#xe611;" d="M998.067 516.807h-34.941v-158.887h34.941c15.903 0 25.436 12.711 25.436 25.436v108.043c3.164 12.711-9.519 25.408-25.436 25.408zM998.067 342.045h-34.941v-158.873h34.941c15.903 0 25.436 12.697 25.436 25.408v108.029c3.164 15.903-9.519 25.436-25.436 25.436zM998.067 170.461h-34.941v-139.807c0-6.37 0-12.711-3.192-19.095h38.133c15.903 0 25.436 12.711 25.436 25.436v108.029c3.164 12.711-9.519 25.436-25.436 25.436zM57.469 272.135h63.541v-9.533h-63.541v9.533zM57.469 450.088h63.541v-9.533h-63.541v9.533zM851.919 952.172h-699.118c-54.022 0-95.332-41.311-95.332-95.347v-60.377h63.541v60.391c0 19.081 12.711 31.777 31.777 31.777h699.118c19.066 0 31.763-12.711 31.763-31.777v-826.2c0-19.095-12.711-31.777-31.763-31.777h-699.104c-19.066 0-31.777 12.711-31.777 31.777v63.541h-63.555v-63.541c0-54.036 41.311-95.347 95.332-95.347h699.118c54.022 0 95.318 41.311 95.318 95.347v826.2c0 54.022-41.311 95.332-95.318 95.332zM57.469 628.042h63.541v-9.547h-63.541v9.547zM51.113 659.805h79.444c28.614 0 50.844 22.244 50.844 50.844 0 28.614-22.23 50.844-50.844 50.844h-79.444c-28.6 0-50.844-22.244-50.844-50.844-3.178-28.586 22.244-50.844 50.844-50.844zM51.113 481.866h79.444c28.614 0 50.844 22.23 50.844 50.844 0 28.6-22.23 50.844-50.844 50.844h-79.444c-28.6 0-50.844-22.244-50.844-50.844-3.178-28.6 22.244-50.844 50.844-50.844zM51.113 303.912h79.444c28.614 0 50.844 22.216 50.844 50.858 0 28.6-22.23 50.844-50.844 50.844h-79.444c-28.6 0-50.844-22.244-50.844-50.844-3.178-28.6 22.244-50.858 50.844-50.858zM181.387 176.802c0 28.6-22.23 50.844-50.844 50.844h-79.444c-28.6 0-50.844-22.244-50.844-50.844 0-28.628 22.244-50.844 50.844-50.844h79.444c25.422 0 50.844 22.244 50.844 50.844zM750.232 307.076c-3.206 9.533-12.711 12.711-22.244 15.903-44.503 15.875-82.607 25.408-127.124 41.311-3.164 0-15.875 9.533-15.875 31.763 0 9.547-3.192 12.711-12.711 12.711-3.192 0-3.192 0-3.192 6.37-3.192 19.066-3.192 31.749-3.192 34.927s3.192 6.341 3.192 6.341c15.875 19.081 19.081 47.666 19.081 60.377 0 0 3.178 0 6.341 6.37 3.206 9.533 3.206 12.711 6.327 22.216 3.206 6.355 3.206 25.422-6.327 25.422-6.341-3.192-3.206 0-3.206 6.355v57.199c0 19.066-12.711 31.777-22.216 38.133-12.711 9.547-19.095 12.711-25.422 15.889-6.341 3.192-3.206 9.533 0 15.889 3.206 3.192 6.327 6.341 9.533 6.341h-3.192c-3.164 0-34.927-3.178-47.638-6.341-25.422-6.355-50.844-12.711-69.91-31.777-12.711-6.327-22.23-19.066-25.422-38.133 0-9.533 0-41.311 0-57.199 0-3.178 0-9.547-6.355-6.355-12.711 0-6.341-22.23-3.178-22.23 0-9.533 6.355-15.875 6.355-25.408 3.164-6.37 3.164-6.37 3.164-6.37 3.192-15.875 9.533-44.474 22.244-60.377 0 0 3.178-3.178 3.178-6.341 0-9.519 0-22.23-3.178-34.927 0 0 0-6.37-3.192-6.37-9.533 0-12.711-6.341-9.533-12.711 0-15.903-9.533-28.628-15.889-31.763-22.23-9.533-98.496-31.777-123.918-41.311-15.889-3.206-22.244-9.533-25.422-15.903l-22.244-57.185c98.51 0 146.176-60.377 247.864-76.28v0l-31.763 44.503 54.022 146.19-15.889 34.969h34.955l-15.889-34.969 54.050-146.19-31.777-44.503c3.178 0 3.178 0 3.178 0 104.88 15.903 174.748 76.28 247.878 76.28l-25.465 57.185zM686.648 278.476h-79.444v12.711h79.444v-12.711z" />
<glyph unicode="&#xe612;" d="M811.999 621.336c-5.731-60.53 46.23-94.676 40.509-108.637-3.753-9.145-27.766-21.449-27.766-21.449-4.33-20.341-15.215-78.866-33.277-102.925-12.945-17.265-36.957-21.651-80.102-21.651-44.482 0-93.047-23.335-96.123-70.151-4.678-70.618 47.137-106.074 89.953-129.107-13.997-28.8-90.529-76.257-170.357-76.257-130.059 0-213.988 82.839-213.988 82.839 59.212 42.77 148.578 174.476 182.121 327.211 96.608 18.886 244.262 73.392 309.030 120.126zM515.291 710.419c166.613 28.919 243.209 143.214 243.209 143.214s-67.927 131.276-270.206 96.123c-202.297-35.172-195.367-218.519-195.367-218.519 21.312-15.023 73.172-46.752 222.364-20.817zM843.051 851.133c0 0-108.729-171.858-322.579-209.374-177.424-31.135-267.569 23.079-267.569 23.079-107.017-29.816-166.521-58.36-166.521-88.863 0-14.354 121.032-77.795 421.484-21.358 301.358 56.603 521.846 264.273 515.776 290.108-12.652 53.994-180.592 6.408-180.592 6.408zM752.906 139.386c-15.618-35.373-88.030-97.084-213.988-97.084-178.23 0-271.661 99.437-271.661 99.437s-187.156-66.389-202.938-75.699c-57.289-33.881-64.082-119.54-64.082-134.315h907.023c0 0.009-4.577 129.482-154.355 207.662zM89.184 138.69c299.097 61.83 341.181 353.375 341.181 353.375-36.142-4.229-152.853-9.951-218.565-7.012-88.817-69.803-82.455-170.815-59.166-225.806-76.138-29.578-69.803-103.611-63.45-120.556z" />
<glyph unicode="&#xe613;" d="M918.050 107.174c-37.213-23.027-75.933-30.497-115.681-24.74-39.611 5.483-79.976 21.45-119.245 41.256-19.669 10.143-39.269 20.765-58.526 32.69-19.874 11.513-37.213 23.164-59.485 37.35-8.841 5.208-18.024 10.143-27.139 15.008-3.769 40.708-9.115 105.196-8.498 139.873 0.822 39.885 3.564 79.976 8.978 119.656 5.414 39.611 13.569 79.017 26.042 117.258 5.551 16.585 12.062 32.895 19.463 48.795 3.358 0.822 6.511 1.508 9.731 2.262 0.891-0.206 1.508-0.274 2.399-0.48-0.274 0.343-0.548 0.548-0.754 0.891 2.056 0.411 4.18 0.959 6.168 1.439 7.607-5.208 14.666-10.417 20.354-16.242 8.635-8.566 14.392-18.024 17.818-28.646 3.495-10.554 4.592-22.547 4.523-35.431 0.069-12.884-1.371-26.385-1.576-41.256 10.28 10.691 17.544 23.712 21.793 38.104 4.112 14.323 5.071 30.839-0.069 46.602-4.934 15.762-16.653 29.537-30.497 37.007-2.947 1.576-6.031 2.878-9.115 4.112 14.94 2.33 29.332 3.632 43.106 3.564 26.864 0 50.576-5.688 72.438-16.859s42.353-28.029 62.295-48.109c20.148-20.080 39.063-43.243 61.747-66.75-0.754 32.621-9.663 64.077-25.494 93.272-15.899 28.852-40.022 55.99-72.712 72.575-32.415 16.927-71.958 20.080-105.196 10.211-27.824-8.155-52.016-23.643-69.971-44.34-0.411 0-0.822 0-1.165-0.069 0.206-0.137 0.411-0.274 0.685-0.411-0.411-0.48-0.754-0.959-1.165-1.371-0.137 0.137-0.274 0.343-0.411 0.48 1.028 1.987 2.193 3.975 3.29 5.894 21.999 21.862 43.381 40.228 65.585 53.455 22.958 13.843 46.259 21.245 70.656 22.958 24.466 1.713 50.713-2.056 78.263-8.978 27.55-6.785 55.785-16.859 87.378-25.151-17.544 27.55-41.393 49.891-70.039 66.681-28.578 16.448-63.255 27.207-99.714 24.466-36.459-2.262-71.958-20.011-95.396-45.642-7.401-8.155-13.843-16.996-19.394-26.179 0.548 5.483 1.302 10.965 1.234 16.585-0.137 34.677-14.734 71.684-40.228 97.726-25.288 26.453-58.32 41.667-90.462 48.589-32.553 6.716-65.174 6.099-96.698-2.604 29.057-14.94 56.744-26.385 81.758-39.885 25.014-13.227 47.15-27.961 64.146-45.711 17.064-17.681 29.332-38.72 37.144-64.42 6.305-20.491 9.869-43.243 11.787-68.12-5.071 25.288-17.613 49.274-35.774 69.628-23.164 25.836-58.526 43.929-94.916 46.533-36.527 2.947-71.273-7.47-99.988-23.712-28.783-16.516-52.838-38.583-70.656-65.996 31.662 8.087 59.965 17.887 87.652 24.397 27.481 6.716 53.797 10.28 78.332 8.292 24.397-1.919 47.561-9.526 70.451-23.575 11.925-7.264 23.575-16.036 35.157-25.905-12.267 1.302-25.288-0.891-36.527-6.785-14.803-7.47-25.768-19.806-32.895-32.964-7.196-13.158-11.239-27.481-11.582-42.284 10.211 10.691 18.846 21.176 28.029 30.291 9.046 9.115 18.366 16.79 28.235 21.793 9.937 5.071 20.697 7.676 32.827 7.676 4.934 0 10.143-0.548 15.488-1.234-10.554-14.529-20.422-29.743-29.263-45.436-20.628-36.733-36.939-75.796-50.645-115.75-13.638-39.954-24.603-80.799-33.649-122.192-5.894-27.824-8.292-71.89-10.554-111.227-8.498 2.536-16.996 5.208-25.631 7.333-50.508 12.199-103.003 15.899-154.059 10.965s-100.467-18.229-145.972-38.583c-45.162-20.902-87.995-46.602-122.26-81.484 90.325 33.855 182.226 49.96 270.22 45.368 88.132-4.386 171.192-32.004 245.48-77.372 18.024-11.102 40.365-25.425 61.884-37.487 21.862-11.925 44.271-23.301 67.778-33.169 46.876-19.257 98.206-34.951 153.785-33.992 27.618 0.548 55.99 6.031 81.758 17.133 25.836 10.965 48.452 27.55 66.681 46.327 36.048 38.309 58.458 81.895 76.413 126.921-35.294-33.443-68.258-68.669-105.95-90.873z" />
<glyph unicode="&#xe614;" d="M907.932 491.597c14.562 18.824 26.122 33.928 34.659 45.324 61.488 81.749 88.139 133.971 79.971 156.738l-3.205 5.332c-2.129 3.203-7.65 6.144-16.528 8.806-8.889 2.66-20.261 3.085-34.117 1.329l-153.545-1.083c-3.555 0.354-7.112 0.271-10.666-0.246-3.555-0.541-5.861-1.083-6.935-1.6-1.071-0.542-1.954-0.977-2.66-1.331l-2.129-1.6c-1.777-1.060-3.73-2.932-5.861-5.605-2.133-2.672-3.922-5.769-5.334-9.335-16.704-43.004-35.717-82.995-57.046-119.961-13.154-22.039-25.243-41.157-36.248-57.308-11.020-16.187-20.261-28.090-27.727-35.717-7.462-7.641-14.221-13.784-20.257-18.39-6.052-4.638-10.666-6.581-13.856-5.875-3.205 0.706-6.229 1.412-9.066 2.143-4.978 3.189-8.983 7.535-11.996 13.055-3.024 5.496-5.061 12.432-6.134 20.79-1.060 8.346-1.695 15.55-1.86 21.602-0.189 6.038-0.094 14.562 0.271 25.593 0.354 11.020 0.529 18.47 0.529 22.391 0 13.492 0.271 28.159 0.804 43.981 0.529 15.81 0.977 28.348 1.329 37.591 0.354 9.229 0.529 19.013 0.529 29.325 0 10.289-0.623 18.39-1.876 24.262-1.246 5.852-3.118 11.538-5.59 17.058-2.495 5.498-6.134 9.772-10.938 12.784-4.801 3.026-10.749 5.415-17.857 7.206-18.849 4.274-42.84 6.558-71.977 6.933-66.114 0.683-108.589-3.578-127.425-12.807-7.464-3.92-14.221-9.241-20.259-15.999-6.404-7.829-7.287-12.101-2.66-12.784 21.331-3.203 36.425-10.855 45.312-22.933l3.203-6.392c2.483-4.638 4.969-12.809 7.464-24.534 2.485-11.726 4.086-24.699 4.803-38.92 1.777-25.945 1.777-48.149 0-66.645-1.777-18.493-3.461-32.88-5.061-43.169-1.602-10.312-4.003-18.659-7.194-25.051-3.203-6.415-5.332-10.324-6.404-11.747-1.071-1.412-1.954-2.306-2.66-2.662-4.626-1.766-9.418-2.66-14.396-2.66-4.98 0-11.020 2.497-18.13 7.477-7.112 4.955-14.492 11.807-22.121 20.519-7.652 8.698-16.258 20.883-25.865 36.529-9.595 15.622-19.555 34.117-29.856 55.436l-8.523 15.47c-5.332 9.935-12.621 24.428-21.862 43.441s-17.424 37.4-24.522 55.188c-2.849 7.452-7.112 13.138-12.796 17.058l-2.66 1.6c-1.777 1.414-4.626 2.932-8.535 4.522-3.92 1.6-7.993 2.755-12.267 3.472l-146.083-1.060c-14.927 0-25.051-3.391-30.383-10.147l-2.131-3.191c-1.077-1.789-1.606-4.638-1.606-8.535 0-3.92 1.071-8.712 3.203-14.387 21.331-50.127 44.523-98.465 69.574-145.012 25.064-46.572 46.832-84.078 65.314-112.509 18.482-28.454 37.318-55.271 56.519-80.51s31.903-41.402 38.118-48.501c6.215-7.123 11.101-12.457 14.658-15.999l13.327-12.807c8.523-8.525 21.061-18.742 37.591-30.656 16.528-11.913 34.823-23.639 54.919-35.177 20.073-11.561 43.452-20.965 70.103-28.265 26.653-7.298 52.599-10.228 77.838-8.793h61.313c12.444 1.060 21.858 4.955 28.254 11.726l2.129 2.66c1.412 2.12 2.755 5.415 4.001 9.855 1.237 4.438 1.876 9.335 1.876 14.656-0.367 15.279 0.8 29.077 3.461 41.321 2.66 12.267 5.684 21.496 9.066 27.734 3.378 6.206 7.19 11.455 11.463 15.729 4.265 4.274 7.277 6.829 9.066 7.723 1.777 0.871 3.205 1.495 4.265 1.872 8.522 2.839 18.563 0.083 30.123-8.264 11.549-8.371 22.393-18.659 32.528-30.926 10.122-12.267 22.294-26.028 36.517-41.321 14.21-15.279 26.651-26.651 37.318-34.115l10.666-6.417c7.108-4.249 16.339-8.158 27.723-11.726 11.372-3.543 21.333-4.438 29.854-2.66l136.489 2.143c13.504 0 23.993 2.212 31.458 6.663 7.462 4.415 11.903 9.335 13.327 14.656 1.412 5.332 1.506 11.347 0.271 18.118-1.246 6.746-2.495 11.455-3.73 14.115-1.246 2.66-2.404 4.897-3.476 6.663-17.774 31.986-51.716 71.271-101.831 117.83l-1.071 1.060-0.529 0.541-0.529 0.519h-0.535c-22.756 21.685-37.143 36.26-43.183 43.735-11.016 14.196-13.513 28.594-7.462 43.167 4.238 11.051 20.225 34.336 47.947 69.89z" />
<glyph unicode="&#xe615;" d="M512 955.664c-282.776 0-512-229.155-512-512s229.293-511.931 512-511.931 512 229.224 512 512-229.224 511.931-512 511.931zM512 0.301c-244.515 0-443.432 198.848-443.432 443.5s198.917 443.432 443.432 443.432 443.432-198.985 443.432-443.432-198.848-443.5-443.432-443.5zM534.079 607.2c-6.72 6.72-15.496 9.942-24.342 9.942s-17.622-3.223-24.342-9.942l-222.367-222.367c-13.371-13.371-13.371-35.107 0-48.478s35.107-13.371 48.478 0l198.231 198.231 198.231-198.231c13.371-13.371 35.107-13.371 48.478 0s13.371 35.107 0 48.478l-222.367 222.367z" />
</font>
</defs>
</svg>
